<?xml version="1.0" standalone="no"?>
<!DOCTYPE svg PUBLIC "-//W3C//DTD SVG 20010904//EN"
 "http://www.w3.org/TR/2001/REC-SVG-20010904/DTD/svg10.dtd">
<svg version="1.0" xmlns="http://www.w3.org/2000/svg"
 width="750.000000pt" height="750.000000pt" viewBox="0 0 750.000000 750.000000"
 preserveAspectRatio="xMidYMid meet">
<metadata>
Created by potrace 1.11, written by Peter Selinger 2001-2013
</metadata>
<g transform="translate(0.000000,750.000000) scale(0.100000,-0.100000)"
fill="#000000" stroke="none">
<path d="M4282 6949 c-13 -5 -28 -7 -32 -4 -5 3 -11 -4 -15 -15 -6 -19 -22
-25 -54 -21 -7 2 -10 -2 -6 -9 5 -8 1 -10 -12 -6 -12 4 -23 0 -31 -12 -50 -73
-65 -100 -66 -122 -1 -14 -10 -37 -19 -51 -10 -15 -21 -44 -24 -65 -8 -47 -42
-128 -43 -100 0 20 0 20 -15 0 -14 -18 -14 -18 -15 6 0 14 -7 50 -16 80 -8 30
-22 84 -30 119 -8 35 -20 69 -28 75 -7 6 -18 20 -24 31 -11 19 -11 19 -12 -5
-1 -22 -2 -23 -9 -6 -9 23 -41 31 -41 10 0 -8 -5 -14 -11 -14 -6 0 -8 -8 -5
-18 3 -9 8 -53 11 -97 6 -77 9 -104 20 -170 4 -21 -1 -37 -16 -55 -13 -16 -19
-19 -15 -8 10 33 -19 8 -49 -42 -16 -28 -33 -50 -37 -50 -12 0 -10 7 16 49 34
54 53 120 37 130 -9 6 -9 15 -1 36 19 49 3 38 -31 -22 -18 -32 -40 -68 -50
-81 -9 -12 -16 -30 -14 -40 1 -9 0 -11 -2 -4 -3 6 -9 12 -15 12 -7 0 -5 7 3
18 20 23 62 112 56 118 -2 2 -17 -23 -33 -56 -15 -33 -32 -60 -36 -60 -12 0
-10 8 8 35 9 15 13 33 9 47 -4 14 -3 18 2 10 7 -8 16 3 31 38 29 66 28 82 -3
45 -15 -18 -22 -38 -19 -50 4 -17 4 -18 -6 -3 -7 11 -7 25 0 43 21 56 8 46
-26 -21 -20 -38 -33 -56 -29 -40 3 15 8 42 10 60 4 28 3 27 -7 -6 -14 -45 -28
-49 -28 -9 0 58 -41 50 -42 -8 -2 -54 -16 -44 -24 16 -6 53 -8 56 -17 33 -15
-35 -16 -36 -32 -14 -11 14 -10 4 4 -35 24 -64 17 -90 -9 -34 -20 43 -55 90
-46 61 4 -13 1 -15 -12 -10 -11 4 -4 -10 17 -36 18 -24 30 -46 26 -50 -3 -4
-15 5 -26 19 -10 15 -31 34 -45 44 l-26 17 23 -31 c12 -16 28 -32 36 -35 7 -3
13 -13 13 -23 -1 -17 -2 -17 -15 1 -16 21 -65 56 -79 56 -4 0 2 -9 15 -20 27
-22 23 -24 -18 -10 -24 8 -25 8 -9 -3 10 -6 28 -20 40 -29 21 -17 21 -17 0
-18 -11 0 -35 11 -54 25 -37 27 -41 29 -39 18 4 -22 -3 -33 -18 -33 -15 0 -16
-2 -3 -10 12 -8 10 -10 -10 -10 l-25 -1 23 -10 c26 -10 21 -29 -9 -29 -10 0
-19 -4 -19 -10 0 -5 -12 -21 -27 -35 l-28 -25 32 9 c18 5 37 13 44 16 6 4 14
2 18 -4 5 -8 15 -5 34 9 26 21 34 16 27 -15 -1 -5 10 1 25 15 l27 25 -8 -29
c-6 -25 -5 -28 10 -23 13 5 16 3 12 -11 -6 -19 1 -24 67 -51 19 -8 34 -8 47
-1 24 13 100 13 100 0 0 -5 -12 -11 -27 -11 -26 -2 -25 -2 7 -10 27 -6 19 -7
-30 -4 -36 2 -56 1 -45 -1 11 -3 29 -10 41 -15 15 -8 33 -7 60 0 21 6 63 11
93 11 42 0 52 -3 48 -14 -3 -8 -1 -17 6 -20 7 -2 -1 -5 -16 -5 -16 -1 -26 3
-22 9 7 12 -34 13 -62 3 -16 -6 -15 -8 7 -14 20 -6 17 -7 -17 -8 -23 -1 -44
-5 -47 -10 -3 -5 15 -6 39 -3 59 6 59 -14 0 -22 -52 -8 -61 -7 -58 5 2 5 -3 9
-10 9 -6 0 -24 8 -39 18 l-27 18 67 -2 67 -3 -65 9 c-36 5 -73 7 -83 4 -12 -4
-29 3 -44 18 -15 12 -23 17 -18 9 6 -10 2 -12 -14 -6 -14 4 -21 2 -21 -7 0
-10 -10 -13 -32 -10 -18 2 -46 -2 -63 -9 l-30 -12 28 -10 c15 -6 27 -17 27
-23 0 -7 15 -20 33 -29 18 -8 37 -25 42 -37 6 -12 24 -26 41 -30 36 -9 87 -56
80 -74 -3 -8 9 -16 30 -21 19 -4 34 -11 32 -14 -6 -12 25 -39 41 -35 9 2 32 7
51 11 35 6 35 6 10 -9 -14 -9 -34 -16 -45 -16 -17 0 -17 -2 -5 -10 28 -18 -5
-10 -43 10 -55 30 -243 80 -299 80 -52 0 -180 -40 -235 -74 -36 -22 -109 -84
-84 -70 8 4 2 -9 -13 -29 -31 -40 -50 -147 -27 -147 7 0 9 -4 6 -10 -3 -5 -1
-10 4 -10 6 0 11 6 11 14 0 7 6 19 14 25 8 7 18 25 21 41 4 18 11 27 20 24 7
-3 33 0 56 7 24 7 64 14 87 15 35 3 43 0 38 -12 -5 -12 -2 -13 17 -3 12 7 34
20 49 30 37 26 41 24 22 -13 -9 -18 -13 -30 -9 -26 5 4 14 3 21 -3 11 -9 21
-2 48 27 96 109 102 111 28 9 l-33 -45 29 0 c17 0 32 6 36 15 3 8 11 15 17 15
7 0 2 -11 -11 -25 -27 -29 -8 -35 23 -7 16 13 19 14 15 2 -3 -8 -10 -24 -14
-35 -7 -20 -7 -20 15 0 18 15 24 16 30 6 6 -9 11 -10 15 -3 4 6 20 21 37 33
l31 22 -16 -32 c-18 -33 -20 -41 -10 -40 4 0 10 -5 15 -12 6 -10 11 -10 22 0
12 9 16 9 20 -1 4 -11 6 -10 6 0 1 8 6 10 14 5 22 -14 39 -12 33 3 -4 11 0 10
19 -3 14 -10 24 -24 22 -31 -1 -7 -45 -32 -99 -56 -98 -44 -167 -83 -217 -123
-16 -13 -53 -36 -83 -51 -82 -44 -109 -63 -118 -88 -5 -12 -22 -28 -39 -35
-17 -8 -29 -19 -27 -24 2 -6 -2 -19 -10 -30 -20 -27 -17 -37 9 -30 20 6 21 5
5 -8 -12 -10 -19 -34 -23 -81 -4 -62 -4 -66 11 -51 9 9 23 14 30 11 10 -4 14
3 14 22 1 24 2 25 11 9 8 -14 14 -16 25 -6 8 6 14 19 14 28 0 9 3 12 8 6 12
-16 36 -11 47 9 14 27 32 31 38 9 4 -17 5 -17 6 0 1 10 9 17 20 17 14 0 22 12
32 45 12 41 14 43 22 23 9 -22 9 -22 17 -3 l9 20 1 -20 c2 -17 3 -16 10 5 7
23 8 24 15 6 7 -17 10 -14 21 20 12 38 12 38 13 9 l2 -30 14 25 14 25 1 -27
c0 -15 5 -30 10 -33 6 -4 10 11 10 38 0 31 5 47 15 51 10 3 16 21 17 53 1 38
3 33 8 -27 4 -41 7 -58 8 -37 2 30 6 37 20 35 13 -2 18 5 21 37 2 32 5 36 11
20 8 -18 9 -17 9 8 2 55 21 25 23 -35 1 -53 2 -56 5 -18 3 31 7 40 14 30 7
-12 9 -10 9 7 0 12 5 25 10 28 6 3 10 15 10 26 0 18 2 18 14 6 8 -8 12 -24 9
-40 -3 -15 -1 -27 5 -27 5 0 13 21 18 48 l8 47 7 -40 c3 -22 7 -31 9 -20 1 11
2 24 1 29 -1 5 5 6 14 3 10 -4 15 0 16 11 1 11 4 8 9 -8 5 -17 8 -19 9 -8 1
10 6 17 13 15 7 -1 15 13 18 33 4 27 7 32 15 20 5 -8 9 -26 8 -40 -1 -19 0
-20 4 -5 5 21 42 61 44 48 0 -4 6 10 14 32 9 28 13 33 14 18 1 -32 21 -29 21
3 0 14 4 23 9 20 5 -3 14 1 21 9 10 12 16 13 27 4 11 -10 11 -15 -3 -30 -11
-12 -13 -19 -5 -19 7 0 2 -17 -14 -42 -15 -24 -34 -60 -42 -80 -9 -21 -25 -40
-35 -44 -33 -10 -71 -58 -117 -145 -24 -46 -51 -93 -60 -103 -9 -11 -10 -16
-3 -12 19 11 14 -4 -17 -61 -30 -55 -24 -66 18 -37 l23 17 -17 -27 c-10 -15
-15 -29 -12 -32 3 -3 1 -18 -4 -33 -12 -30 -2 -114 12 -106 5 4 9 -9 9 -27 0
-19 5 -39 11 -45 9 -9 9 -20 0 -44 -15 -44 -14 -60 4 -53 12 5 15 -2 15 -31 0
-20 5 -56 11 -81 11 -44 12 -44 25 -22 29 51 44 91 37 102 -3 6 -3 8 2 4 12
-11 34 23 35 52 1 23 2 23 10 5 9 -24 11 -19 31 68 7 32 16 53 19 46 11 -17
21 34 14 70 -8 36 8 42 24 9 9 -20 11 -18 11 22 1 48 18 86 28 62 4 -10 8 -9
19 5 12 16 13 15 13 -12 0 -31 -25 -163 -53 -275 -18 -69 -24 -91 -110 -355
-83 -259 -91 -288 -121 -430 -19 -93 -60 -349 -76 -480 -11 -88 -22 -171 -23
-185 -2 -14 -13 -106 -25 -205 -12 -99 -24 -187 -27 -195 -3 -8 -12 -52 -20
-97 -31 -180 -151 -475 -280 -688 -44 -73 -74 -92 -92 -58 -21 41 -34 208 -44
573 -5 212 -11 408 -13 435 -6 89 -35 309 -44 340 -5 17 -17 73 -26 125 -9 52
-23 118 -32 145 -35 117 -77 243 -97 290 -33 81 -130 265 -170 325 -20 30 -39
65 -42 77 -4 13 -9 21 -14 18 -4 -2 -12 6 -19 19 -10 18 -9 33 8 84 12 34 21
71 21 82 0 12 4 19 8 16 5 -3 3 -33 -5 -68 -24 -114 -26 -124 -14 -108 6 8 11
10 11 4 0 -5 7 -19 16 -30 15 -18 15 -18 11 8 -2 15 -1 25 4 23 4 -3 10 3 12
12 2 10 3 2 1 -17 -3 -28 2 -21 22 33 15 37 28 66 30 65 1 -2 -4 -41 -12 -87
-8 -46 -12 -86 -9 -89 3 -3 5 2 5 11 0 10 4 17 9 17 5 0 12 19 16 43 10 61 28
84 21 26 -3 -25 -2 -56 1 -70 6 -21 8 -19 19 21 9 36 13 41 18 25 4 -11 11
-29 16 -40 8 -19 9 -19 9 2 1 12 5 24 10 27 5 4 7 -14 4 -39 -3 -28 0 -45 6
-45 6 0 11 7 11 15 0 27 20 16 21 -12 1 -19 5 -11 13 24 17 77 26 75 26 -5 0
-55 3 -72 14 -72 7 0 17 10 20 23 l7 22 11 -25 c11 -23 12 -22 17 25 5 42 7
46 13 25 7 -20 10 -22 17 -10 7 10 11 -2 13 -40 l4 -55 8 42 c5 24 15 48 22
54 12 9 14 2 15 -42 2 -49 2 -51 9 -19 7 38 14 29 25 -32 3 -21 11 -38 17 -38
7 0 9 23 5 73 l-7 72 15 -45 c8 -25 15 -58 15 -74 0 -28 1 -29 15 -10 14 19
14 19 15 -1 0 -35 32 -107 41 -93 6 9 9 7 9 -7 1 -19 1 -19 11 -2 6 10 8 29 5
41 -8 30 4 40 21 18 13 -15 14 -12 7 28 -3 25 -8 56 -10 70 -12 93 -38 138
-103 182 -25 17 -66 50 -92 72 -72 65 -97 85 -102 80 -2 -2 -10 2 -17 11 -7 8
-19 15 -27 15 -12 0 -14 7 -9 33 4 24 3 28 -5 17 -8 -12 -9 -11 -4 6 3 14 -7
43 -30 84 -20 35 -34 65 -32 67 3 2 14 5 25 8 19 3 20 1 10 -20 -9 -21 -7 -31
14 -62 14 -21 31 -47 37 -58 11 -18 11 -18 5 5 -3 14 -13 37 -21 53 -23 45 -7
30 36 -34 46 -69 56 -67 13 2 -47 75 -45 76 17 11 56 -60 87 -74 75 -34 -4 11
2 8 16 -8 19 -22 18 -18 -4 23 -15 26 -23 47 -18 47 12 0 59 -61 72 -92 5 -13
9 -18 9 -11 1 8 8 8 29 -2 37 -19 65 -13 73 16 7 23 7 23 8 -3 1 -34 18 -36
32 -5 7 17 8 12 4 -23 -4 -34 -2 -41 6 -27 16 26 26 21 34 -20 5 -26 9 -33 15
-23 7 12 10 11 15 -5 4 -11 11 -29 15 -40 5 -11 11 -27 14 -35 3 -8 5 4 3 27
-1 24 2 44 7 46 5 2 1 18 -8 36 -17 32 -17 32 3 22 29 -16 39 -13 17 4 -12 9
-15 15 -7 15 7 0 11 6 8 14 -3 8 2 17 11 21 14 6 13 9 -8 18 -30 12 -28 12
-62 21 -16 5 -28 13 -28 18 0 9 20 8 70 -4 8 -2 5 0 -7 6 -31 13 -29 26 5 27
16 1 3 7 -33 14 l-60 13 48 1 c26 1 47 5 47 10 0 6 -16 7 -35 4 -19 -3 -42 -2
-52 2 -16 7 -15 9 7 15 14 5 43 9 65 10 23 1 31 4 20 7 -32 8 -42 23 -15 23
13 0 20 3 17 6 -4 4 -32 -1 -62 -11 -68 -21 -84 -13 -26 14 26 11 38 21 29 24
-10 5 -9 9 5 20 31 25 0 30 -38 7 -42 -26 -44 -20 -9 26 l26 34 -23 0 c-12 0
-33 -10 -46 -22 -28 -27 -30 -14 -2 31 11 18 18 36 15 38 -4 5 -41 -48 -50
-72 -2 -5 -6 -7 -10 -4 -3 3 1 22 9 42 20 48 19 55 -4 28 -16 -18 -20 -19 -25
-5 -9 23 -7 31 3 15 6 -9 10 -2 13 23 2 20 3 36 1 36 -5 0 -71 -145 -78 -172
-5 -20 -13 -25 -41 -26 -19 -1 -34 1 -34 4 0 11 28 33 34 27 3 -4 6 2 6 13 0
11 9 45 20 77 24 68 27 106 4 64 -8 -15 -19 -25 -24 -22 -14 9 -51 -52 -69
-113 -17 -55 -18 -57 -55 -60 l-38 -3 6 35 c14 84 17 112 7 90 -5 -11 -12 -46
-16 -77 -6 -48 -10 -57 -27 -57 -19 0 -20 4 -14 59 8 71 -6 87 -25 28 l-13
-42 -7 40 -6 40 -3 -50 -3 -50 -7 45 c-4 26 -8 34 -9 20 -1 -14 -6 -32 -11
-40 -7 -11 -10 -7 -11 20 -2 30 -3 31 -6 8 -2 -15 0 -43 6 -62 5 -20 6 -38 1
-41 -4 -3 -11 17 -15 45 -4 27 -11 50 -16 50 -5 0 -9 -5 -9 -11 0 -5 -5 -7
-10 -4 -6 4 -7 11 -4 17 4 7 -2 8 -17 3 -21 -7 -22 -6 -10 9 12 14 11 16 -3
16 -12 0 -16 -10 -16 -45 0 -25 5 -45 10 -45 6 0 8 11 4 25 -3 14 -2 25 4 25
7 0 25 -91 19 -96 -1 -1 -12 -5 -24 -8 -20 -6 -23 -4 -23 21 0 15 -4 43 -9 61
-7 22 -6 32 2 32 8 0 7 4 -1 12 -10 10 -7 15 10 26 l23 13 -24 -7 c-17 -4 -21
-3 -16 6 4 7 2 16 -5 20 -8 5 -5 9 9 13 12 3 19 1 15 -4 -7 -11 7 -11 24 0 10
6 7 10 -13 15 -22 6 -25 9 -15 21 10 12 10 15 0 15 -8 0 -11 2 -9 5 3 2 20 0
38 -5 63 -18 66 2 5 32 -33 16 -47 27 -31 23 74 -14 80 -15 42 0 -22 8 -47 19
-55 24 -28 15 -80 23 -80 12 0 -6 6 -11 13 -11 8 0 8 -3 -2 -9 -11 -7 -10 -10
5 -13 10 -3 -1 -4 -25 -4 -41 1 -42 1 -16 12 24 10 25 12 9 18 -11 4 -14 10
-8 14 6 4 13 15 17 25 6 17 47 25 47 8 0 -4 19 -13 43 -19 41 -11 30 -10 -55
3 -41 6 -34 4 70 -30 60 -19 87 -23 100 -16 16 10 16 10 0 11 -10 0 -18 5 -18
11 0 7 13 9 38 5 33 -6 35 -5 19 8 -12 9 -14 15 -6 18 7 2 -3 12 -22 21 l-34
18 40 -6 c22 -3 47 0 55 6 12 8 9 9 -12 5 -22 -5 -26 -3 -22 9 4 11 0 15 -17
15 -39 0 -13 11 36 15 59 5 66 11 29 27 l-29 12 26 3 c16 3 32 14 40 31 8 15
18 30 24 34 6 4 2 8 -8 8 -10 0 -15 5 -12 10 3 6 17 10 30 10 13 0 27 5 30 10
3 6 -4 10 -16 10 -21 0 -21 1 5 21 14 11 26 28 26 38 0 9 5 22 12 29 9 9 5 12
-17 13 -26 0 -27 2 -10 9 19 8 19 9 -2 9 -29 1 -30 18 -2 26 17 6 19 9 8 16
-18 11 -138 9 -145 -2 -3 -5 -13 -9 -22 -9 -18 0 -128 -112 -172 -175 -15 -22
-43 -53 -61 -70 -19 -16 -41 -41 -50 -55 -21 -31 -33 -21 -35 28 0 20 -5 46
-9 56 -5 11 -5 17 1 14 5 -4 9 4 10 15 0 12 4 56 8 97 19 209 15 320 -14 320
-6 0 -10 7 -10 15 0 20 -29 19 -37 -2 -6 -15 -7 -15 -13 2 -4 12 -11 -11 -20
-61 -7 -43 -17 -87 -22 -97 -5 -10 -11 -55 -14 -100 -3 -51 -9 -87 -18 -95
-12 -12 -15 -5 -21 49 -4 35 -13 71 -21 80 -8 9 -14 27 -13 40 1 37 -16 92
-42 139 -22 39 -24 40 -30 18 -4 -20 -8 -15 -27 32 -21 53 -22 53 -16 15 4
-30 3 -36 -5 -25 -9 13 -11 12 -11 -4 0 -12 -5 -16 -15 -12 -13 5 -15 -4 -10
-56 3 -33 8 -65 11 -69 2 -4 0 -10 -6 -14 -11 -7 -3 -90 11 -117 7 -12 6 -18
-1 -18 -7 0 -8 -6 -1 -19 6 -10 10 -31 9 -47 -1 -25 3 -69 16 -199 1 -17 8
-40 15 -53 15 -29 -3 -29 -24 1 -9 12 -37 58 -63 102 -86 148 -133 193 -257
245 -66 28 -140 34 -226 21 -53 -9 -69 -17 -104 -51 -22 -22 -41 -49 -41 -60
0 -11 1 -20 1 -20 1 0 19 9 41 19 53 26 102 32 89 11 -3 -5 0 -7 8 -4 8 3 18
1 22 -5 3 -6 20 -11 37 -11 23 0 29 -4 24 -15 -3 -10 3 -17 19 -21 33 -8 55
-34 29 -34 -16 0 -17 -2 -4 -10 8 -5 39 -10 69 -10 50 0 53 -1 35 -15 -10 -8
-28 -15 -39 -15 -11 -1 -14 -4 -7 -7 6 -2 12 -11 12 -19 0 -15 44 -12 120 7
46 12 59 11 37 -2 -18 -10 -40 -17 -89 -26 -29 -5 -36 -17 -18 -28 6 -4 10
-12 9 -18 -3 -28 2 -34 29 -30 l27 5 -25 -21 -25 -21 28 0 c18 0 26 -4 21 -11
-5 -9 9 -10 49 -7 46 4 55 2 46 -9 -6 -7 -19 -13 -29 -13 -10 0 -22 -6 -28
-13 -15 -17 4 -39 56 -66 44 -23 56 -37 22 -26 -20 6 -20 5 2 -17 13 -13 31
-22 41 -20 13 3 16 0 10 -13 -6 -16 -2 -17 31 -12 25 4 34 2 30 -5 -5 -8 -1
-9 10 -5 14 6 15 3 6 -13 -13 -24 -5 -28 55 -32 38 -3 40 -5 53 -52 9 -30 10
-52 4 -58 -5 -5 -39 5 -88 27 -105 48 -222 90 -334 120 -60 16 -146 28 -282
39 -92 8 -171 16 -175 19 -5 3 -40 8 -78 11 -52 5 -66 3 -55 -5 11 -8 0 -9
-43 -5 -47 4 -56 2 -48 -8 9 -11 2 -15 -31 -21 -42 -8 -42 -8 -13 -14 l30 -7
-42 -24 c-24 -14 -43 -29 -43 -33 0 -5 -10 -17 -22 -26 -22 -18 -17 -47 7 -37
7 2 17 0 22 -5 7 -7 16 -5 26 5 13 14 15 13 20 -4 5 -19 21 -21 45 -7 16 10
32 0 32 -20 0 -11 7 -7 21 12 l22 27 22 -28 c15 -19 27 -25 40 -21 13 6 16 3
11 -8 -4 -13 -2 -14 14 -5 10 5 22 15 25 20 4 6 10 8 15 5 5 -3 15 2 24 10 13
13 15 13 21 -4 4 -12 12 -18 21 -14 9 3 14 -1 14 -13 1 -18 1 -18 11 -1 6 9
15 14 21 11 6 -4 14 0 19 7 6 10 8 5 8 -16 0 -75 7 -80 45 -34 30 35 70 49 61
20 -6 -20 21 -25 43 -8 15 12 15 3 1 -26 -9 -21 -9 -21 5 -3 8 10 19 15 25 12
6 -4 17 6 25 22 19 37 46 61 46 41 0 -20 -63 -118 -75 -119 -11 0 -65 -26 -95
-45 -8 -5 -35 -17 -60 -25 -83 -29 -122 -62 -160 -134 -19 -37 -38 -70 -42
-72 -5 -3 -8 -14 -8 -26 0 -17 2 -18 15 -8 18 15 19 3 5 -34 -8 -22 -7 -25 9
-23 10 2 31 17 46 35 15 18 32 32 39 32 7 0 21 18 31 40 26 58 38 49 14 -11
-11 -29 -18 -57 -15 -63 2 -6 5 -4 5 4 1 8 12 28 26 44 14 16 25 33 25 37 0 5
7 6 15 3 9 -4 17 3 22 23 7 26 8 25 13 -17 l5 -45 17 35 c10 19 18 28 18 20 1
-10 4 -9 11 5 7 15 8 11 5 -17 -5 -42 -4 -44 17 -23 13 12 15 10 21 -18 l6
-32 15 29 c8 15 15 33 15 40 1 6 7 25 15 41 l15 30 -5 -45 c-4 -40 -4 -42 7
-21 l12 23 12 -33 c11 -31 13 -32 13 -8 1 14 8 34 16 45 14 19 14 19 15 -3 0
-33 20 -39 20 -6 1 25 2 26 14 11 21 -28 36 -21 36 15 1 22 3 28 9 17 5 -8 6
-32 3 -53 -3 -30 -12 -43 -36 -58 -17 -10 -24 -19 -16 -19 11 -1 10 -3 -4 -12
-10 -6 -26 -17 -35 -24 -9 -8 -25 -20 -35 -27 -24 -17 -13 -37 17 -30 l22 4
-22 -13 c-12 -7 -23 -17 -24 -23 -1 -5 -13 -24 -27 -41 -25 -32 -39 -84 -22
-84 12 0 2 -30 -17 -52 -10 -11 -11 -18 -3 -23 7 -4 2 -17 -15 -37 -27 -31
-31 -44 -16 -50 5 -1 1 -21 -10 -42 -10 -22 -17 -41 -15 -43 2 -2 0 -19 -4
-38 -9 -39 -7 -39 52 9 21 16 38 36 38 45 0 14 2 14 10 1 7 -12 12 -11 28 8
10 12 22 19 25 15 11 -10 37 18 37 39 0 17 3 18 15 8 11 -9 15 -9 15 -1 0 15
45 61 60 61 6 0 13 14 16 30 7 34 18 38 33 13 10 -17 10 -17 11 -1 0 9 11 29
25 43 30 29 37 31 29 10 -4 -8 -3 -15 0 -15 13 0 56 49 56 65 0 8 7 15 15 15
8 0 15 5 15 11 0 5 4 8 8 5 5 -3 18 16 31 41 26 53 38 53 16 0 -17 -40 -20
-81 -6 -73 13 8 22 -23 13 -42 -7 -14 -8 -51 -3 -105 1 -4 11 4 24 19 l24 27
-2 -56 c-1 -31 -9 -67 -17 -79 -19 -31 -29 -58 -20 -58 4 0 15 19 24 42 10 23
21 38 25 35 3 -4 15 1 26 10 18 16 17 14 -3 -27 -13 -25 -24 -63 -26 -85 -1
-22 1 -34 3 -27 3 6 9 12 14 12 13 0 11 -34 -2 -47 -8 -8 -6 -18 5 -36 9 -13
14 -31 10 -40 -10 -27 7 -43 24 -21 13 18 14 18 7 -6 -4 -14 -7 -27 -7 -30 -1
-54 2 -61 22 -50 18 10 19 8 11 -13 -9 -24 -3 -67 16 -116 8 -21 11 -22 16 -7
4 10 11 14 17 11 5 -3 10 3 10 14 0 10 4 21 9 23 4 2 15 23 23 48 11 34 20 44
33 42 15 -3 17 2 13 36 -3 21 -1 47 5 57 10 19 11 19 18 0 6 -15 8 -11 8 17 1
42 9 68 22 68 5 0 9 -7 9 -16 0 -8 5 -12 11 -8 6 3 8 16 5 29 -4 16 -1 25 10
29 14 5 16 16 11 56 -4 29 -2 50 3 50 6 0 10 -5 10 -12 0 -6 3 -9 6 -6 3 4 -2
20 -11 37 -8 17 -11 31 -6 31 5 0 11 -7 15 -15 3 -8 15 -15 28 -15 17 0 19 3
10 12 -7 7 -12 22 -12 35 0 13 -3 23 -7 23 -5 0 -8 10 -9 23 0 12 -5 31 -9 42
-8 18 -7 19 9 6 16 -14 17 -13 2 20 -21 48 -47 128 -54 169 -10 50 -58 137
-86 155 -21 14 -54 91 -43 101 5 6 81 -83 117 -136 14 -19 30 -41 37 -48 33
-34 183 -325 183 -356 0 -8 4 -17 9 -20 4 -3 16 -34 25 -68 10 -35 24 -81 31
-103 11 -33 30 -131 52 -265 16 -103 34 -329 39 -510 6 -214 -15 -641 -37
-750 -5 -25 -16 -85 -25 -135 -20 -110 -42 -164 -69 -170 -133 -26 -386 -87
-580 -140 -73 -20 -371 -113 -401 -125 -12 -5 -64 -23 -115 -40 -51 -17 -120
-42 -153 -55 -34 -13 -113 -44 -176 -68 -300 -117 -426 -180 -483 -240 -27
-29 -43 -53 -38 -55 6 -2 55 10 109 27 125 39 172 51 197 51 19 0 19 0 0 -19
-11 -10 -60 -48 -108 -85 -73 -54 -84 -66 -63 -66 35 0 25 -16 -46 -74 -41
-33 -56 -51 -48 -56 9 -5 3 -16 -21 -36 -77 -67 -119 -107 -116 -111 2 -2 39
13 81 32 138 63 140 42 10 -96 -70 -76 -127 -155 -122 -170 2 -6 37 14 78 43
178 128 511 290 795 388 120 41 190 58 165 41 -26 -18 17 -13 120 14 52 13 96
22 99 20 2 -3 -4 -15 -15 -27 -19 -21 -19 -21 1 -14 72 27 418 139 455 147 25
5 56 12 69 15 44 10 5 -22 -57 -47 -100 -40 -160 -71 -129 -66 46 7 14 -15
-83 -58 -171 -76 -564 -284 -538 -285 4 0 25 6 45 14 121 46 424 126 473 126
23 0 21 -4 -28 -51 -28 -28 -52 -52 -52 -54 0 -2 28 4 63 15 217 63 288 82
294 77 3 -4 -5 -16 -18 -27 l-24 -20 40 6 c22 4 105 26 185 51 323 98 377 115
430 133 203 68 529 158 640 175 25 4 113 23 195 42 355 80 427 94 555 108 74
8 162 19 195 25 33 5 155 16 270 25 116 8 235 20 265 25 30 5 118 14 195 20
191 15 325 37 325 53 0 6 -62 7 -184 3 -225 -9 -298 1 -233 32 17 8 -29 11
-188 12 l-210 1 60 25 60 24 -100 -5 c-55 -2 -121 -7 -147 -11 -54 -7 -66 8
-20 24 l27 10 -30 7 c-96 22 -35 33 200 35 155 2 174 4 138 13 -84 24 -54 29
129 22 162 -7 269 -2 256 10 -2 2 -44 9 -93 15 -131 15 -149 20 -135 34 8 8
120 12 382 15 204 2 365 7 357 11 -25 15 -131 30 -314 45 -211 18 -608 44
-680 45 -35 0 -46 3 -35 10 8 5 52 7 97 5 49 -2 83 0 83 5 0 6 -2 10 -4 10 -3
0 -69 11 -148 24 -79 13 -168 27 -198 30 -152 17 -643 46 -777 46 -106 0 -153
3 -153 11 0 27 141 198 300 364 437 458 601 655 844 1015 55 81 213 389 254
495 34 87 112 279 121 300 5 11 14 34 19 50 7 23 14 29 32 27 31 -3 38 -11 20
-22 -16 -10 -15 -11 15 -29 17 -10 15 -11 -15 -6 l-35 6 30 -16 c17 -10 41
-21 55 -26 21 -8 20 -8 -10 -5 -19 2 -42 6 -50 8 -8 2 -5 0 8 -6 24 -11 31
-32 7 -22 -8 3 -15 1 -15 -4 0 -5 18 -15 40 -21 l41 -12 -38 -18 -37 -17 45
-10 c24 -5 37 -10 28 -11 -22 -1 -79 -31 -59 -30 20 0 188 57 173 58 -18 1
-16 21 2 21 8 0 15 -9 15 -19 0 -14 -9 -21 -31 -26 -18 -4 -50 -15 -72 -25
-32 -14 -36 -19 -21 -23 11 -3 1 -3 -20 0 -26 4 -37 2 -32 -5 4 -6 -2 -8 -14
-5 -11 3 -20 1 -20 -5 0 -5 12 -13 28 -17 l27 -7 -30 -11 c-39 -13 -40 -14
-22 -31 10 -11 27 -14 49 -11 l33 5 -28 -11 c-35 -14 -29 -35 9 -32 l29 1 -30
-14 c-16 -7 -26 -13 -21 -14 5 0 -1 -12 -15 -26 l-24 -27 40 7 c38 7 39 6 19
-8 -29 -21 -35 -49 -18 -82 13 -23 12 -29 -1 -44 -8 -9 -15 -20 -15 -24 0 -14
28 -35 36 -28 5 4 3 0 -3 -8 -8 -12 -10 -46 -4 -68 1 -1 16 5 34 14 31 17 31
16 17 -1 -14 -17 -13 -18 3 -12 19 7 21 3 7 -22 -8 -15 -6 -17 15 -13 14 2 25
9 25 14 0 5 4 7 9 3 5 -3 18 6 29 20 11 13 22 22 25 19 8 -9 44 78 52 126 4
25 8 92 9 149 2 64 7 106 15 110 13 9 9 132 -7 176 -6 17 -15 53 -21 80 -28
139 -33 155 -72 199 -21 24 -39 50 -39 58 0 7 -9 30 -20 51 -25 46 -19 74 18
81 50 9 62 5 56 -20 -8 -32 5 -67 22 -60 10 4 14 -3 14 -24 0 -17 5 -30 10
-30 6 0 10 9 10 21 0 11 5 17 10 14 6 -3 10 -17 10 -31 0 -14 4 -22 10 -19 6
3 10 -3 10 -15 0 -12 4 -18 11 -15 6 4 13 -2 16 -14 8 -30 23 -16 24 22 l1 32
7 -31 c12 -47 20 -57 37 -43 11 9 14 7 14 -14 0 -30 18 -46 31 -26 5 8 9 28 9
44 0 22 3 26 9 16 5 -8 7 -29 4 -47 -3 -17 0 -40 6 -50 9 -17 10 -15 11 14 0
17 4 32 9 32 5 0 12 12 14 28 4 24 4 24 6 -7 1 -25 5 -32 16 -28 10 5 16 -4
20 -31 11 -60 13 -60 14 1 1 31 6 57 11 57 6 0 10 -1 11 -2 0 -2 6 -39 14 -83
7 -44 13 -66 14 -50 l2 30 14 -30 13 -30 2 45 c1 25 4 37 7 28 2 -10 10 -18
18 -18 16 0 21 -13 30 -75 9 -59 25 -41 25 28 0 69 20 49 22 -21 l1 -57 7 45
6 45 14 -35 c14 -34 14 -35 21 -10 7 24 7 24 9 -5 1 -16 4 -24 7 -17 8 20 23
14 23 -9 0 -17 3 -19 14 -10 11 9 15 6 21 -16 10 -40 26 -58 36 -41 7 10 9 10
9 -2 0 -13 1 -13 10 0 8 13 14 10 33 -14 15 -19 29 -27 39 -23 11 4 18 -1 21
-14 6 -24 37 -25 38 -1 0 9 5 2 10 -16 8 -28 12 -32 24 -22 12 10 15 8 15 -11
1 -20 2 -21 10 -8 5 9 7 38 4 65 -2 27 -4 57 -5 67 0 10 -7 21 -15 24 -20 7
-18 23 4 23 14 0 15 2 2 10 -12 8 -12 10 -1 10 11 0 10 5 -4 20 -17 19 -17 20
1 21 16 0 15 3 -6 12 -44 21 -70 41 -70 55 0 19 -37 49 -85 71 -22 10 -81 45
-131 78 -94 62 -234 135 -269 140 -11 2 -21 8 -23 13 -2 6 -12 10 -23 10 -10
0 -19 7 -19 15 0 18 20 20 21 3 0 -7 5 -3 11 9 9 18 4 34 -26 90 -24 43 -29
57 -14 39 13 -16 38 -56 56 -89 17 -33 32 -53 32 -44 0 10 6 14 14 11 8 -3 19
3 25 15 13 23 14 34 3 27 -4 -2 -8 3 -8 12 -1 9 -4 25 -9 35 -4 9 -3 17 2 17
5 0 25 -28 46 -62 29 -50 37 -58 37 -38 0 14 -9 40 -20 58 -23 38 -16 43 12 7
26 -33 42 -22 23 16 -20 39 -10 37 14 -2 18 -29 19 -30 26 -10 3 11 3 26 0 33
-4 7 7 -2 23 -19 32 -38 46 -42 37 -13 -8 25 10 27 24 3 6 -10 11 -14 11 -9 0
5 -10 25 -22 45 l-21 36 44 -42 c50 -48 70 -55 61 -21 -4 18 -2 20 16 16 23
-6 22 2 -6 34 -13 15 -12 17 8 15 12 -1 33 -11 46 -24 28 -25 31 -15 9 27 -20
39 -9 38 33 -2 34 -32 34 -32 17 -5 l-18 28 37 -21 c20 -12 39 -26 42 -31 3
-5 10 -9 17 -9 6 0 -8 19 -31 43 -54 55 -54 69 0 23 27 -23 44 -32 49 -25 4 7
21 1 49 -17 30 -20 45 -25 48 -16 2 6 8 10 13 6 18 -11 8 11 -18 38 -21 22
-23 28 -10 28 27 0 20 17 -18 40 -19 12 -35 26 -35 31 0 5 -11 11 -25 15 -14
4 -24 9 -21 12 3 3 -7 12 -22 21 -22 13 -62 16 -217 16 -181 0 -194 -1 -274
-28 -105 -35 -243 -103 -328 -162 -67 -47 -92 -53 -57 -13 17 19 17 21 2 15
-10 -4 -18 -2 -18 4 0 27 26 52 75 73 29 13 58 34 65 45 6 12 8 21 5 21 -3 0
11 16 32 35 20 19 35 37 32 40 -4 3 13 26 37 51 50 52 53 61 22 66 -20 3 -17
7 20 26 23 12 42 25 42 28 0 3 -21 3 -47 0 -40 -5 -43 -4 -14 3 49 13 111 43
106 51 -3 4 2 13 10 20 8 7 15 19 15 26 0 8 8 14 18 14 23 1 50 22 45 36 -4
12 70 44 100 44 10 0 15 5 12 10 -3 6 1 10 9 10 19 0 21 16 4 23 -7 3 -3 6 10
6 13 1 20 5 17 11 -10 16 14 40 39 41 12 0 15 3 8 6 -10 4 -8 9 7 20 12 8 19
18 16 23 -3 5 0 12 7 16 7 5 3 11 -13 18 l-24 10 27 3 c14 3 32 10 38 18 9 11
5 15 -23 20 -19 4 -44 2 -55 -4 -15 -8 -23 -6 -37 9 -19 21 -27 20 -106 -18
-32 -15 -64 -39 -74 -55 -9 -15 -29 -34 -45 -42 -16 -8 -41 -31 -56 -50 -14
-19 -31 -35 -36 -35 -13 0 -38 -26 -38 -40 0 -7 -6 -5 -15 4 -13 12 -14 20 -5
37 7 11 9 23 6 26 -2 3 -1 15 4 27 4 13 11 38 14 57 3 19 12 58 20 88 15 54 8
101 -14 101 -5 0 -10 12 -11 28 0 24 -1 25 -9 7 -5 -11 -9 -16 -9 -11 -1 5 -8
3 -16 -4 -12 -10 -15 -10 -16 1 0 8 -9 -14 -20 -48 -11 -35 -24 -63 -29 -63
-5 0 -14 -19 -20 -42 -6 -24 -16 -56 -23 -73 -6 -16 -11 -34 -9 -38 3 -11 -24
-37 -38 -37 -6 0 -8 5 -5 10 8 13 -38 -7 -87 -37 -21 -13 -42 -23 -47 -23 -19
0 0 28 23 34 34 8 109 79 111 104 1 12 10 31 21 43 l19 22 -25 -13 c-14 -7
-53 -31 -88 -53 -64 -40 -90 -43 -87 -10 2 29 15 44 34 38 11 -3 37 12 74 46
62 55 68 70 18 45 -41 -22 -48 -20 -25 6 20 23 10 19 -39 -15 -41 -28 -42 -16
-1 26 20 20 32 37 27 37 -5 0 -20 -11 -33 -25 -28 -30 -45 -33 -28 -6 8 14 9
26 2 42 -11 23 -11 23 -39 -19 -15 -23 -30 -42 -32 -42 -7 0 8 64 18 76 14 17
-3 25 -20 10 -9 -8 -20 -16 -26 -17 -5 -2 -9 -9 -7 -16 1 -7 -4 -25 -13 -40
l-15 -28 5 35 c3 19 1 58 -4 85 -5 31 -9 39 -10 23 -1 -26 -14 -37 -24 -20 -2
4 -2 0 1 -8 11 -33 14 -80 5 -80 -5 0 -14 17 -21 38 l-11 37 5 -45 4 -45 -29
55 c-31 57 -39 62 -20 13 l10 -28 -32 30 -32 30 27 -37 c15 -20 23 -39 17 -42
-5 -3 -19 6 -30 21 -34 45 -41 53 -51 53 -6 0 -10 -5 -10 -11 0 -5 -4 -7 -10
-4 -5 3 -10 -2 -10 -11 0 -14 -3 -15 -12 -6 -20 20 -32 13 -13 -8 16 -18 16
-20 2 -20 -9 0 -26 4 -39 9 -13 5 -32 12 -43 16 -16 5 -17 8 -5 15 11 7 3 10
-25 10 -22 0 -52 8 -65 17 -31 22 -180 34 -443 37 -184 3 -219 9 -202 36 4 6
14 9 24 6 20 -8 -20 26 -72 60 -22 14 -36 28 -33 32 4 3 41 -18 84 -47 42 -29
71 -47 65 -40 -17 17 -17 34 0 20 11 -8 18 -7 31 7 15 18 14 21 -24 53 -56 48
-50 56 13 16 75 -48 77 -49 77 -41 0 4 -19 24 -41 45 -41 37 -41 38 -11 27 37
-14 54 -4 26 16 -18 13 -17 14 8 13 14 -1 24 -5 22 -9 -3 -4 2 -5 11 -2 14 6
14 8 -1 25 -22 25 -7 24 34 -1 39 -24 48 -25 30 -5 -41 45 -42 48 -19 40 30
-9 26 0 -11 24 -42 27 -24 27 47 0 62 -23 78 -20 50 11 -18 19 -17 20 1 20 17
1 17 2 -4 20 l-23 19 23 6 c13 3 36 1 52 -4 45 -18 44 -13 -6 22 l-46 33 81
-1 c45 -1 91 -5 102 -9 11 -4 2 2 -20 14 -22 11 -60 27 -85 35 l-45 15 40 -6
c22 -3 53 -8 69 -11 20 -4 27 -3 22 5 -5 8 11 10 54 7 37 -2 58 0 55 5 -4 6 0
10 7 10 21 1 -23 30 -45 30 -16 0 -17 2 -7 15 7 9 11 17 9 19 -12 12 -175 36
-202 31 -44 -9 -250 -110 -317 -155 -104 -71 -246 -242 -319 -387 -28 -56 -46
-67 -38 -22 3 19 3 28 0 21 -8 -19 -23 -4 -23 24 0 14 18 47 40 75 29 37 39
58 36 75 -3 14 1 42 9 64 8 23 10 40 4 42 -5 2 -2 14 8 28 23 32 29 122 8 114
-21 -9 -18 10 5 31 25 22 16 39 -13 23 -17 -9 -14 -3 11 26 20 23 31 44 27 53
-3 9 0 22 6 30 7 7 9 16 5 20 -3 3 6 21 20 40 22 29 23 33 7 33 -13 0 -3 15
34 50 29 28 50 50 47 50 -4 0 -1 7 6 15 6 8 9 18 6 24 -3 5 0 12 6 14 8 3 5 6
-6 6 -16 1 -16 3 -5 17 10 13 10 17 -2 25 -11 7 -9 9 9 9 24 0 28 10 10 28 -9
9 -9 12 1 12 8 0 11 6 7 16 -4 9 -1 23 6 32 11 13 9 14 -17 9 l-30 -7 33 29
c35 30 27 46 -16 30z m-782 -408 c0 -4 -13 -20 -30 -36 -31 -30 -40 -24 -15 9
11 14 12 22 4 27 -6 3 1 7 15 7 14 0 26 -4 26 -7z m103 -20 c-4 -17 -8 -19
-14 -9 -12 18 -11 31 1 23 6 -3 10 -1 10 6 0 7 2 10 5 8 2 -3 2 -15 -2 -28z
m217 -29 c0 -4 -7 -18 -16 -31 -12 -17 -13 -25 -5 -30 8 -5 2 -20 -19 -49 -39
-54 -38 -67 1 -22 l31 35 -15 -31 c-26 -51 -40 -57 -62 -27 -11 15 -25 31 -31
38 -8 8 -3 20 18 45 l30 35 -17 -33 c-28 -57 -10 -46 29 18 33 53 56 75 56 52z
m-310 -6 c0 -2 -7 -7 -16 -10 -8 -3 -12 -2 -9 4 6 10 25 14 25 6z m75 -6 c-3
-5 -13 -10 -21 -10 -8 0 -12 5 -9 10 3 6 13 10 21 10 8 0 12 -4 9 -10z m55
-60 c0 -12 -37 -12 -65 0 -15 7 -10 9 23 9 23 1 42 -3 42 -9z m18 -37 c-10 -2
-26 -2 -35 0 -10 3 -2 5 17 5 19 0 27 -2 18 -5z m22 -33 c11 -7 5 -10 -23 -10
-23 0 -36 4 -32 10 8 13 35 13 55 0z m155 -9 c-3 -6 -11 -11 -16 -11 -5 0 -4
6 3 14 14 16 24 13 13 -3z m-98 -75 c13 -13 -8 -19 -30 -8 -12 6 -31 13 -42
16 -11 3 -1 4 23 2 24 -3 46 -7 49 -10z m113 -11 c0 -2 -13 -11 -30 -20 -16
-9 -30 -12 -30 -8 0 5 10 13 23 19 25 13 37 16 37 9z m-137 -11 c26 -5 44 -16
58 -35 l20 -29 -38 1 c-34 1 -35 2 -13 9 37 12 8 11 -50 -1 -74 -16 -84 -5
-16 16 57 18 58 19 32 28 -26 9 -72 2 -118 -18 -11 -4 -18 -3 -18 3 0 6 19 15
43 20 55 13 56 13 100 6z m107 -34 c0 -5 -5 -10 -11 -10 -5 0 -7 5 -4 10 3 6
8 10 11 10 2 0 4 -4 4 -10z m43 -27 c-32 -21 -29 -37 2 -17 34 22 44 10 14
-15 -30 -26 -36 -26 -44 0 -7 20 17 49 40 48 6 0 0 -7 -12 -16z m-70 -25 c3
-10 -13 -13 -57 -14 -33 -1 -52 0 -41 3 11 3 24 9 30 14 14 13 62 11 68 -3z
m82 -38 c-10 -11 -21 -17 -24 -14 -3 3 3 12 13 20 28 20 32 17 11 -6z m-57
-10 c10 -17 10 -20 -5 -20 -10 0 -29 -3 -42 -7 -17 -4 -22 -3 -17 5 4 7 16 12
27 12 21 0 26 16 7 23 -9 4 -8 6 2 6 8 1 21 -8 28 -19z m22 -49 c0 -10 -24
-21 -43 -21 -7 0 -3 7 7 15 22 17 36 19 36 6z m52 -13 c-7 -7 -12 -8 -12 -2 0
14 12 26 19 19 2 -3 -1 -11 -7 -17z m-42 -18 c0 -5 -7 -10 -15 -10 -8 0 -15 5
-15 10 0 6 7 10 15 10 8 0 15 -4 15 -10z m377 -26 c-7 -7 -37 7 -37 17 0 6 9
5 21 -1 11 -7 19 -14 16 -16z m-807 2 c0 -3 -4 -8 -10 -11 -5 -3 -10 -1 -10 4
0 6 5 11 10 11 6 0 10 -2 10 -4z m1055 -24 c-3 -3 -11 0 -18 7 -9 10 -8 11 6
5 10 -3 15 -9 12 -12z m-831 2 c20 -8 21 -24 2 -24 -8 0 -16 7 -20 15 -6 17
-4 18 18 9z m326 -64 c0 -47 -14 -52 -28 -11 -7 20 -7 32 1 40 20 20 27 12 27
-29z m305 -14 c34 -18 71 -23 45 -6 -8 5 -10 10 -4 10 6 0 18 -8 25 -17 7 -10
9 -15 5 -11 -5 4 -15 3 -22 -2 -6 -6 -44 -20 -84 -31 -39 -11 -94 -31 -121
-44 l-49 -25 7 32 c6 34 28 83 46 107 15 17 110 9 152 -13z m-406 -100 c9 -11
6 -15 -16 -19 -34 -6 -40 -2 -23 18 15 19 24 19 39 1z m364 -17 c4 -16 3 -18
-9 -8 -7 6 -11 15 -8 20 8 13 11 11 17 -12z m-484 -17 c0 -14 -2 -14 -8 2 -7
19 -8 18 -15 -5 -4 -14 -9 -19 -13 -11 -6 15 16 44 28 36 5 -3 9 -13 8 -22z
m1378 22 c-3 -3 -12 -4 -19 -1 -8 3 -5 6 6 6 11 1 17 -2 13 -5z m-1452 -33
c-7 -23 -25 -29 -25 -8 0 14 21 39 28 33 2 -3 1 -14 -3 -25z m465 -5 c0 -14
49 -52 62 -49 3 2 12 -4 18 -12 17 -21 33 -19 26 3 -3 9 6 4 21 -13 15 -16 24
-23 21 -14 -4 10 -1 16 8 16 8 0 13 -6 10 -13 -3 -8 0 -11 9 -8 7 3 18 -4 25
-15 6 -12 15 -21 21 -21 5 0 3 13 -6 30 -23 45 -18 55 11 21 14 -17 30 -28 35
-25 6 3 21 -1 34 -10 17 -11 26 -12 31 -5 4 6 3 14 -2 18 -12 8 -13 51 -2 51
5 0 15 -14 22 -30 7 -17 15 -27 19 -23 4 3 7 -1 7 -11 0 -9 4 -15 9 -12 5 4 3
19 -6 36 -8 17 -13 38 -11 48 3 12 10 6 26 -23 11 -22 21 -34 22 -27 0 19 17
14 41 -10 l21 -23 -17 40 c-28 66 -28 71 -1 40 14 -16 26 -34 26 -38 0 -5 5
-5 12 -1 7 4 8 3 4 -5 -4 -6 -4 -20 -1 -32 7 -20 7 -20 21 -2 13 17 15 17 28
0 12 -16 14 -16 20 -2 3 9 2 13 -4 10 -13 -8 -12 6 1 25 8 11 12 12 16 2 2 -6
9 -10 14 -7 5 4 6 -2 2 -11 -4 -11 -3 -15 5 -10 6 4 21 -6 33 -23 25 -35 43
-32 29 4 -5 14 -7 32 -3 42 5 12 3 14 -7 8 -9 -5 -11 -4 -6 4 11 17 28 1 23
-21 -5 -19 -5 -19 15 -1 20 18 21 18 14 -4 -7 -23 8 -41 20 -22 4 8 3 9 -4 5
-7 -4 -12 -3 -12 2 0 16 33 24 41 10 6 -9 10 -8 15 5 8 23 21 21 29 -4 4 -11
9 -18 13 -15 3 3 14 -1 24 -10 13 -13 21 -14 31 -5 8 6 18 7 22 3 5 -4 5 -2 1
5 -3 6 -2 14 4 18 5 3 10 1 10 -6 0 -10 3 -10 12 -1 8 8 15 7 28 -9 16 -17 18
-18 24 -3 6 16 8 16 25 0 15 -14 20 -14 29 -3 7 8 9 17 5 20 -3 4 -4 7 0 7 3
0 13 -8 23 -17 13 -13 18 -15 22 -5 3 10 7 10 18 1 11 -9 14 -9 14 0 0 7 5 9
13 5 6 -4 1 5 -12 19 -14 15 -21 30 -18 33 4 4 -1 13 -11 20 -15 12 -15 15 -2
24 24 16 39 12 33 -10 -6 -22 7 -26 25 -8 7 7 12 8 12 2 0 -6 -5 -15 -12 -22
-9 -9 -8 -12 5 -12 13 0 16 -6 11 -24 -4 -19 1 -32 19 -50 16 -16 21 -27 14
-30 -7 -2 -5 -5 4 -5 25 -1 119 -43 119 -52 0 -5 -12 -4 -26 1 -36 14 -42 12
-19 -6 19 -15 17 -16 -25 -10 -32 4 -38 3 -20 -3 14 -5 18 -10 10 -10 -8 -1
18 -16 57 -35 40 -18 70 -35 67 -38 -3 -3 -32 3 -65 13 -34 11 -68 19 -77 18
-10 0 10 -8 43 -18 33 -9 69 -22 80 -29 17 -10 10 -11 -40 -7 l-60 4 58 -11
c62 -11 77 -28 25 -27 -18 0 -51 -3 -73 -8 -39 -9 -39 -9 35 -18 41 -5 93 -9
115 -8 34 0 41 -3 41 -19 0 -18 -5 -19 -46 -11 -57 10 -170 7 -182 -5 -6 -6 6
-11 31 -15 22 -3 50 -12 62 -21 22 -15 21 -15 -17 -11 -35 4 -34 3 11 -9 38
-10 46 -15 33 -20 -10 -5 -25 -6 -33 -2 -8 3 -15 2 -15 -2 0 -4 34 -13 77 -20
82 -13 88 -15 79 -31 -4 -6 -27 -2 -61 10 -30 10 -69 18 -87 18 l-33 -2 30 -4
c16 -3 38 -11 50 -19 19 -14 17 -15 -17 -9 -45 9 -54 9 -93 5 -16 -1 21 -8 82
-14 116 -13 138 -20 113 -36 -13 -8 -12 -10 2 -10 12 0 15 -5 11 -16 -3 -9 -9
-11 -12 -6 -3 5 -40 12 -81 15 -48 4 -62 3 -40 -2 19 -5 27 -9 17 -10 -10 0
-16 -5 -12 -10 3 -6 -3 -14 -12 -20 -16 -10 -16 -11 5 -17 17 -5 22 -12 19
-26 -6 -22 14 -34 63 -37 43 -2 50 -9 43 -43 -6 -34 -17 -35 -38 -5 -16 21
-17 21 -11 1 8 -26 17 -114 12 -114 -2 0 -29 43 -61 95 -92 152 -222 321 -332
433 -104 105 -190 149 -298 153 -114 5 -187 0 -180 -11 3 -5 -1 -10 -9 -10 -8
0 -30 -9 -49 -20 l-35 -21 -27 26 c-16 14 -33 25 -39 25 -7 0 -28 15 -48 33
-99 88 -165 127 -216 127 -30 0 -126 53 -115 63 3 4 1 7 -5 7 -18 0 -14 18 8
40 23 23 40 26 40 6z m-293 -88 c-2 -18 -4 -4 -4 32 0 36 2 50 4 33 2 -18 2
-48 0 -65z m40 70 c-3 -8 -6 -5 -6 6 -1 11 2 17 5 13 3 -3 4 -12 1 -19z m1568
-21 c21 -16 14 -22 -35 -31 -29 -5 -31 -4 -11 4 15 6 21 16 17 25 -7 19 4 19
29 2z m-1748 -54 c-3 -10 -5 -4 -5 12 0 17 2 24 5 18 2 -7 2 -21 0 -30z m401
-13 c23 -11 42 -27 42 -34 0 -17 -42 -45 -72 -49 -19 -2 -23 4 -29 38 -7 40
-3 65 10 65 4 0 26 -9 49 -20z m1325 -7 c-7 -2 -21 -2 -30 0 -10 3 -4 5 12 5
17 0 24 -2 18 -5z m-1786 -25 c-3 -8 -6 -5 -6 6 -1 11 2 17 5 13 3 -3 4 -12 1
-19z m372 -28 c0 -27 -4 -50 -9 -50 -6 0 -10 23 -10 50 0 28 4 50 9 50 4 0 9
-22 10 -50z m1501 25 c0 -13 -4 -14 -20 -5 -11 6 -20 13 -20 15 0 3 9 5 20 5
11 0 20 -7 20 -15z m-1550 -54 c0 -45 -12 -58 -30 -36 -10 12 -10 21 0 45 17
42 30 38 30 -9z m1605 9 c-3 -5 -10 -10 -16 -10 -5 0 -9 5 -9 10 0 6 7 10 16
10 8 0 12 -4 9 -10z m-50 -23 c15 -12 16 -15 4 -22 -8 -5 -11 -4 -6 0 4 5 -5
14 -20 21 -16 7 -21 13 -12 13 8 1 23 -5 34 -12z m204 -23 c8 -7 -13 -24 -69
-53 -32 -17 -64 -31 -70 -31 -21 0 2 21 50 45 47 24 82 56 46 42 -10 -4 -15
-3 -11 4 6 8 42 4 54 -7z m-79 -18 c0 -4 -68 -46 -76 -46 -15 0 1 19 29 33 33
16 47 20 47 13z m-113 -12 c-3 -3 -12 -4 -19 -1 -8 3 -5 6 6 6 11 1 17 -2 13
-5z m-140 -10 c-3 -3 -12 -4 -19 -1 -8 3 -5 6 6 6 11 1 17 -2 13 -5z m86 -31
c15 -8 38 -11 50 -8 15 4 18 3 9 -3 -11 -7 -10 -10 3 -16 13 -5 15 -9 6 -20
-6 -7 -8 -16 -4 -20 4 -3 -2 -13 -13 -21 -18 -14 -18 -14 6 -15 23 -1 23 -2 5
-9 -11 -5 -21 -4 -23 0 -2 5 -13 9 -25 9 -18 1 -16 4 13 20 19 11 29 19 22 20
-7 0 -10 4 -7 10 3 5 -21 23 -55 40 -33 17 -60 33 -60 36 0 7 37 -5 73 -23z
m237 21 c0 -3 -24 -16 -54 -29 -30 -13 -57 -29 -61 -34 -9 -16 2 -13 31 5 13
9 27 14 30 11 7 -6 -32 -32 -61 -41 -17 -5 -21 -1 -23 19 -1 14 4 25 11 25 6
0 35 11 62 25 51 25 65 29 65 19z m-1369 -67 c-10 -9 -11 -8 -5 6 3 10 9 15
12 12 3 -3 0 -11 -7 -18z m-58 -12 c-3 -9 -8 -14 -10 -11 -3 3 -2 9 2 15 9 16
15 13 8 -4z m135 3 c-2 -6 -10 -14 -16 -16 -7 -2 -10 2 -6 12 7 18 28 22 22 4z
m27 -18 c6 -9 -21 -70 -31 -70 -2 0 3 14 11 31 34 66 6 34 -49 -55 l-58 -94
-87 1 c-82 0 -83 0 -24 6 68 7 73 10 76 39 0 11 4 19 8 16 4 -2 19 10 34 28
l26 33 -20 -42 c-11 -23 -25 -44 -31 -48 -5 -3 -10 -10 -10 -16 0 -5 9 -4 20
3 10 7 17 14 15 17 -3 2 6 18 18 35 13 17 36 52 51 79 28 47 39 56 51 37z
m1052 4 c-3 -3 -12 -4 -19 -1 -8 3 -5 6 6 6 11 1 17 -2 13 -5z m380 -16 c-3
-8 -6 -5 -6 6 -1 11 2 17 5 13 3 -3 4 -12 1 -19z m-3131 -8 c5 -5 27 -14 49
-20 38 -9 38 -9 5 -5 -19 2 -51 7 -70 10 -26 5 -31 4 -20 -4 8 -6 10 -11 4
-11 -18 0 -24 13 -13 27 13 15 31 17 45 3z m1057 -27 c-3 -19 -11 -33 -19 -33
-8 0 -14 5 -14 10 0 6 5 10 12 10 6 0 8 3 5 6 -3 4 -2 15 4 26 14 26 18 20 12
-19z m869 18 c26 3 39 -1 33 -11 -6 -10 6 -14 37 -11 22 3 34 -19 17 -31 -9
-6 11 -7 56 -4 57 5 66 3 47 -6 -15 -7 -22 -19 -20 -32 4 -27 31 -24 106 10
80 38 79 37 57 19 -11 -9 -39 -25 -62 -36 -46 -20 -52 -29 -28 -49 12 -10 18
-10 30 0 9 7 18 10 21 7 3 -3 -4 -10 -15 -17 -28 -14 -27 -30 2 -22 l22 5 -20
-22 -19 -22 28 7 c23 5 27 4 21 -6 -8 -13 8 -12 81 6 26 7 27 6 13 -8 -8 -8
-24 -18 -35 -22 -12 -3 -21 -13 -21 -20 0 -8 6 -12 14 -9 8 3 11 0 8 -9 -4 -9
6 -18 29 -26 19 -7 38 -12 43 -11 21 4 32 -2 27 -14 -6 -18 22 -42 31 -27 10
16 25 12 19 -5 -7 -18 18 -20 48 -4 16 9 19 8 13 -2 -6 -8 -4 -11 7 -6 10 3
15 0 14 -11 -1 -14 8 -17 48 -15 36 1 53 -3 63 -15 22 -29 83 -152 74 -152 -4
0 -35 11 -69 24 -147 58 -357 96 -526 96 -66 0 -106 4 -114 12 -9 9 -12 9 -12
-2 0 -7 -2 -11 -5 -8 -3 2 2 20 11 38 9 18 17 56 17 84 0 44 -7 64 -48 131
-27 44 -68 102 -92 129 -42 47 -57 83 -30 73 8 -3 20 -1 28 3 7 5 18 5 25 -1
7 -6 18 -9 26 -8z m-329 -16 c-3 -9 -8 -14 -10 -11 -3 3 -2 9 2 15 9 16 15 13
8 -4z m-205 -12 c-10 -2 -28 -2 -40 0 -13 2 -5 4 17 4 22 1 32 -1 23 -4z m942
-3 c0 -5 -5 -10 -11 -10 -5 0 -7 5 -4 10 3 6 8 10 11 10 2 0 4 -4 4 -10z
m-3095 -10 c3 -5 0 -10 -9 -10 -8 0 -23 -3 -33 -7 -16 -6 -16 -5 -4 10 15 19
37 22 46 7z m1192 -22 c-3 -8 -6 -5 -6 6 -1 11 2 17 5 13 3 -3 4 -12 1 -19z
m1104 -5 c-12 -20 -14 -14 -5 12 4 9 9 14 11 11 3 -2 0 -13 -6 -23z m1347 16
c11 0 9 -4 -7 -10 -28 -11 -55 -4 -46 12 4 6 14 8 22 5 8 -3 22 -6 31 -7z
m-3098 -54 c-7 -24 -19 -50 -26 -56 -8 -6 -14 -19 -14 -28 0 -10 -7 -26 -15
-37 -15 -18 -16 -17 -9 16 7 39 64 163 72 155 3 -2 -1 -25 -8 -50z m140 45 c0
-5 -5 -10 -11 -10 -5 0 -7 5 -4 10 3 6 8 10 11 10 2 0 4 -4 4 -10z m1165 -20
c-2 -16 -1 -30 3 -30 4 0 13 -10 21 -22 13 -20 12 -20 -16 3 -17 13 -28 30
-27 37 15 52 25 58 19 12z m375 20 c-19 -6 -21 -8 -6 -9 11 -1 17 -3 14 -6 -2
-3 -27 -2 -54 2 l-49 8 40 6 c60 9 86 9 55 -1z m316 -5 c3 -8 -8 -36 -25 -62
-37 -56 -40 -50 -6 17 18 35 21 50 12 53 -9 4 -9 6 1 6 7 1 15 -6 18 -14z
m897 8 c-7 -2 -19 -2 -25 0 -7 3 -2 5 12 5 14 0 19 -2 13 -5z m-1639 -25 c-1
-13 -3 -26 -3 -29 -1 -4 -8 -9 -16 -13 -13 -5 -14 -2 -4 16 9 17 9 23 -1 26
-9 3 -9 6 1 13 21 13 26 11 23 -13z m609 7 c-3 -9 -8 -14 -10 -11 -3 3 -2 9 2
15 9 16 15 13 8 -4z m1094 9 c-3 -3 -12 -4 -19 -1 -8 3 -5 6 6 6 11 1 17 -2
13 -5z m-1390 -10 c-3 -3 -12 -4 -19 -1 -8 3 -5 6 6 6 11 1 17 -2 13 -5z
m1453 -10 c0 -11 -6 -14 -22 -9 -22 6 -22 5 1 -8 33 -20 10 -30 -25 -12 -16 8
-35 15 -41 15 -7 0 -13 5 -13 11 0 7 10 9 25 5 14 -4 25 -2 25 4 0 5 11 10 25
10 16 0 25 -6 25 -16z m50 2 c0 -3 -4 -8 -10 -11 -5 -3 -10 -1 -10 4 0 6 5 11
10 11 6 0 10 -2 10 -4z m-1382 -23 c-10 -2 -26 -2 -35 0 -10 3 -2 5 17 5 19 0
27 -2 18 -5z m-90 -10 c-10 -2 -28 -2 -40 0 -13 2 -5 4 17 4 22 1 32 -1 23 -4z
m1512 -2 c0 -5 -13 -14 -30 -20 -24 -8 -30 -7 -30 4 0 7 12 16 28 18 15 2 28
5 30 6 1 0 2 -3 2 -8z m-1801 -35 c-3 -3 -11 5 -18 17 -13 21 -12 21 5 5 10
-10 16 -20 13 -22z m393 22 c-8 -8 -20 -8 -44 -1 l-33 11 45 1 c33 1 41 -2 32
-11z m-112 -14 c0 -2 -12 -4 -26 -4 -14 0 -23 4 -20 9 6 8 46 4 46 -5z m1420
-4 c0 -5 -5 -10 -11 -10 -5 0 -7 5 -4 10 3 6 8 10 11 10 2 0 4 -4 4 -10z m110
0 c0 -5 -7 -10 -16 -10 -8 0 -13 -4 -10 -9 3 -4 -6 -6 -20 -3 -27 5 -22 17 11
25 32 8 35 7 35 -3z m-1287 -17 c-3 -10 -10 -24 -16 -30 -5 -8 -6 -13 0 -13 5
0 15 6 22 13 11 10 12 7 6 -13 -6 -22 -4 -21 13 6 28 44 45 53 32 18 -6 -15
-8 -35 -5 -43 5 -13 9 -11 21 9 12 21 13 22 12 5 -1 -11 0 -36 1 -55 l2 -35
24 30 25 30 -9 -31 c-8 -29 -6 -33 30 -55 29 -18 39 -30 39 -51 0 -16 5 -28
10 -28 6 0 10 7 10 16 0 13 6 10 25 -10 31 -33 31 -44 3 -51 -19 -4 -202 -1
-259 4 -18 1 -20 31 -4 43 6 5 5 8 -2 8 -7 0 -10 7 -7 15 5 12 -2 15 -32 16
l-39 1 45 12 c42 12 44 13 23 24 -12 7 -29 12 -38 12 -12 0 -15 5 -9 23 4 12
12 25 18 29 6 4 -9 9 -34 10 -44 1 -44 1 -7 5 37 4 49 17 25 26 -8 3 -6 6 5 6
24 1 22 21 -3 21 -11 0 -20 5 -20 10 0 11 12 13 46 11 12 -1 24 5 27 13 9 22
28 20 20 -1z m-598 -15 c-1 -12 -6 -23 -12 -25 -5 -2 -9 7 -7 19 3 29 3 28 12
28 5 0 8 -10 7 -22z m75 -41 c0 -8 -3 -7 -9 2 -6 9 -14 11 -26 4 -12 -7 -14
-13 -6 -17 15 -10 14 -23 -2 -29 -19 -7 -20 40 -1 51 11 6 13 11 5 16 -6 4
-11 15 -11 24 1 13 6 10 25 -11 14 -15 25 -33 25 -40z m290 53 c-11 -7 -11
-10 -2 -10 7 0 10 -4 7 -10 -3 -5 -19 -10 -36 -10 -22 0 -29 5 -29 20 0 16 7
20 38 20 27 0 33 -3 22 -10z m77 -6 c-3 -3 -12 -4 -19 -1 -8 3 -5 6 6 6 11 1
17 -2 13 -5z m1403 -14 c0 -5 -7 -10 -15 -10 -8 0 -15 5 -15 10 0 6 7 10 15
10 8 0 15 -4 15 -10z m-3010 -11 c-20 -8 -22 -12 -10 -19 9 -6 10 -10 3 -10
-6 0 -15 5 -19 11 -7 13 13 29 36 28 8 0 4 -5 -10 -10z m-350 -9 c0 -5 -2 -10
-4 -10 -3 0 -8 5 -11 10 -3 6 -1 10 4 10 6 0 11 -4 11 -10z m89 -78 c27 -54
35 -85 21 -80 -8 2 -60 110 -60 126 0 12 24 -16 39 -46z m226 38 c-3 -5 -12
-10 -18 -10 -7 0 -6 4 3 10 19 12 23 12 15 0z m-161 -34 c2 -14 -1 -23 -5 -20
-5 3 -9 17 -9 31 0 32 11 24 14 -11z m3196 24 c-19 -13 -30 -13 -30 0 0 6 10
10 23 10 18 0 19 -2 7 -10z m-1470 -20 c0 -5 9 -10 19 -10 11 0 23 -4 26 -10
4 -6 -8 -10 -29 -10 -20 0 -36 2 -36 4 0 2 -3 11 -6 20 -4 11 -1 16 10 16 9 0
16 -4 16 -10z m-939 -101 c-5 -13 -10 -19 -10 -12 -1 15 10 45 15 40 3 -2 0
-15 -5 -28z m-506 10 c11 -16 1 -19 -13 -3 -7 8 -8 14 -3 14 5 0 13 -5 16 -11z
m1386 -31 c10 -41 26 -71 95 -177 29 -45 29 -49 15 -71 -10 -15 -11 -21 -3
-16 7 4 12 2 12 -5 0 -9 3 -9 14 0 11 9 15 9 19 -1 4 -10 7 -11 18 0 18 17 29
15 30 -5 0 -10 3 -13 5 -7 3 8 17 9 42 3 21 -4 41 -4 48 1 6 6 14 6 18 2 4 -4
4 7 1 23 l-7 30 25 -33 c14 -19 27 -28 29 -21 3 9 9 9 25 1 16 -9 24 -8 34 4
7 8 19 12 27 9 10 -4 12 0 8 10 -3 9 -2 14 3 10 5 -3 12 1 15 7 3 7 3 2 -1
-12 -5 -22 -4 -23 11 -11 13 11 16 11 16 0 0 -12 2 -12 9 0 8 12 12 12 26 -2
18 -19 35 -14 35 9 0 20 20 17 21 -3 0 -10 7 -2 14 17 16 42 20 26 4 -18 -6
-18 -7 -37 -2 -46 7 -13 14 -7 37 27 21 31 26 36 22 17 -6 -25 -6 -25 5 -2 15
29 25 28 33 -3 l6 -25 22 22 c21 21 21 21 35 2 13 -17 14 -17 8 11 -5 22 -4
26 4 15 11 -16 12 -16 29 23 7 15 16 26 21 22 6 -3 1 -25 -10 -51 -12 -25 -19
-48 -16 -50 2 -3 10 9 17 26 13 31 29 40 31 18 0 -7 4 -4 9 7 l9 20 0 -20 c1
-16 5 -14 22 13 25 38 32 41 23 8 -3 -14 -1 -33 6 -43 10 -16 11 -16 7 5 -3
12 -1 20 3 17 5 -3 14 5 21 17 l12 22 9 -23 c5 -13 6 -26 3 -29 -3 -3 -5 1 -6
9 0 8 -5 3 -10 -10 -5 -13 -7 -26 -4 -29 3 -3 5 1 5 9 0 12 2 12 9 0 7 -12 13
-12 24 -3 7 7 17 9 21 5 4 -4 4 1 0 12 -7 19 -7 19 13 2 20 -18 21 -17 48 15
25 31 27 32 22 8 -2 -14 -8 -34 -11 -45 -5 -12 7 -5 28 19 20 22 36 34 36 27
0 -7 4 -9 10 -6 6 3 7 -1 3 -10 -5 -13 -7 -14 -14 -3 -5 7 -9 8 -9 2 0 -26 17
-23 43 8 24 28 27 30 22 10 -6 -22 -5 -23 15 -12 11 6 24 18 27 26 5 13 7 13
15 2 6 -10 14 -7 33 15 28 32 41 33 75 9 25 -17 39 -52 22 -52 -6 0 -39 -20
-75 -45 -37 -25 -75 -45 -86 -45 -27 0 -100 -29 -131 -52 -14 -10 -48 -37 -77
-58 -29 -22 -58 -40 -65 -40 -10 0 -10 -2 1 -9 11 -7 10 -10 -5 -15 -19 -6
-84 -62 -84 -72 0 -3 9 -2 20 1 11 4 20 2 20 -4 0 -6 -5 -11 -11 -11 -5 0 -7
-4 -4 -10 4 -6 -1 -7 -11 -3 -12 4 -15 3 -10 -6 4 -6 -4 -25 -18 -42 -14 -17
-26 -38 -26 -48 0 -9 -6 -23 -12 -30 -7 -7 -8 -12 -3 -11 23 5 25 -2 8 -32 -9
-18 -16 -39 -15 -46 2 -7 -6 -24 -18 -39 -14 -18 -17 -29 -9 -33 8 -5 7 -16
-4 -37 -9 -16 -18 -51 -21 -77 l-6 -47 38 28 c20 15 43 36 50 46 7 9 17 15 22
12 5 -3 18 7 29 21 15 19 21 22 21 10 0 -23 17 -20 25 4 4 11 11 17 17 14 7
-5 9 -1 5 9 -3 9 -2 19 3 22 6 4 10 0 10 -7 0 -7 8 2 17 21 9 19 19 29 21 22
6 -19 52 49 53 78 l0 26 11 -22 c14 -30 26 -29 34 2 3 14 10 23 14 20 5 -3 11
1 13 7 4 10 8 10 15 -1 9 -12 13 -12 26 2 9 8 16 20 16 26 0 6 4 11 9 11 5 0
13 9 16 20 8 25 25 17 25 -11 0 -26 -148 -327 -232 -474 -155 -270 -496 -658
-923 -1050 -279 -256 -435 -426 -502 -545 -21 -37 -34 -50 -50 -50 -27 0 -28
13 -7 71 74 210 130 547 158 954 1 22 10 155 20 295 16 252 22 309 51 525 19
146 40 237 111 500 37 139 73 300 92 413 9 56 20 102 24 102 4 0 12 -19 19
-42z m122 25 c-7 -2 -21 -2 -30 0 -10 3 -4 5 12 5 17 0 24 -2 18 -5z m1417 -5
c0 -7 -9 -26 -20 -43 l-20 -30 0 36 c0 20 3 39 7 42 11 12 33 8 33 -5z m-4277
-33 c-3 -9 -8 -14 -10 -11 -3 3 -2 9 2 15 9 16 15 13 8 -4z m2418 -3 c-5 -10
-18 -25 -27 -33 -16 -13 -16 -12 0 19 9 17 21 32 27 32 6 0 6 -6 0 -18z
m-1691 -1 c0 -6 -4 -13 -10 -16 -5 -3 -10 1 -10 9 0 9 5 16 10 16 6 0 10 -4
10 -9z m377 -23 c-3 -7 -5 -2 -5 12 0 14 2 19 5 13 2 -7 2 -19 0 -25z m2277 1
c-8 -13 -24 -1 -24 18 0 13 3 13 15 3 8 -7 12 -16 9 -21z m-1898 -6 c-10 -10
-19 5 -10 18 6 11 8 11 12 0 2 -7 1 -15 -2 -18z m248 2 c17 -25 16 -25 -4 -13
-11 7 -20 18 -20 25 0 19 6 16 24 -12z m65 -12 l12 -26 -25 24 c-28 26 -34 41
-12 33 7 -3 19 -17 25 -31z m71 30 c0 -10 -20 -40 -20 -31 0 3 -3 13 -6 22 -4
11 -1 16 10 16 9 0 16 -3 16 -7z m1477 -15 c-3 -8 -6 -5 -6 6 -1 11 2 17 5 13
3 -3 4 -12 1 -19z m1181 4 c2 -7 -2 -10 -12 -6 -9 3 -16 11 -16 16 0 13 23 5
28 -10z m-4137 -15 c-10 -9 -11 -8 -5 6 3 10 9 15 12 12 3 -3 0 -11 -7 -18z
m937 -16 c1 -17 -2 -31 -8 -31 -5 0 -10 16 -10 36 0 42 15 38 18 -5z m-153 13
c19 -13 25 -25 25 -54 0 -35 -2 -38 -40 -48 -22 -5 -42 -7 -44 -3 -7 10 22
121 31 121 2 0 15 -7 28 -16z m211 -21 c-11 -11 -19 6 -11 24 8 17 8 17 12 0
3 -10 2 -21 -1 -24z m287 30 c-9 -3 2 -24 30 -61 67 -88 66 -93 -4 -18 -35 38
-65 72 -67 77 -2 5 9 9 25 8 15 0 22 -3 16 -6z m278 -46 c-4 -61 -11 -59 -11
3 0 29 3 50 7 46 4 -4 6 -26 4 -49z m-54 21 c-3 -8 -6 -5 -6 6 -1 11 2 17 5
13 3 -3 4 -12 1 -19z m-600 -25 c-3 -10 -5 -4 -5 12 0 17 2 24 5 18 2 -7 2
-21 0 -30z m683 28 c0 -6 -4 -13 -10 -16 -5 -3 -10 1 -10 9 0 9 5 16 10 16 6
0 10 -4 10 -9z m1057 3 c-3 -3 -12 -4 -19 -1 -8 3 -5 6 6 6 11 1 17 -2 13 -5z
m-2147 -12 c0 -5 -9 -17 -21 -28 -21 -19 -21 -19 -8 9 12 26 29 37 29 19z
m650 -5 c0 -8 4 -7 11 3 9 13 10 12 5 -3 -5 -16 50 -138 67 -145 4 -2 7 -10 7
-18 0 -31 -19 -11 -54 59 -38 73 -75 124 -60 82 7 -18 6 -18 -9 -6 -24 19 -21
36 8 39 14 1 25 -4 25 -11z m-1279 -24 c-12 -20 -14 -14 -5 12 4 9 9 14 11 11
3 -2 0 -13 -6 -23z m4197 3 c20 -13 55 -41 76 -62 22 -22 36 -31 33 -21 -9 24
9 12 24 -15 9 -16 8 -19 -3 -12 -7 5 -21 7 -31 6 -9 -2 -43 2 -75 9 -31 7 -81
11 -110 10 -61 -2 -74 3 -65 25 6 16 90 84 105 84 4 0 25 -11 46 -24z m-4017
-13 c-12 -20 -14 -14 -5 12 4 9 9 14 11 11 3 -2 0 -13 -6 -23z m139 22 c0 -4
-7 -20 -16 -36 -11 -21 -20 -29 -31 -24 -9 3 -20 0 -25 -7 -6 -11 -8 -10 -8 0
0 10 -4 10 -16 -2 -21 -22 -37 -21 -25 2 11 21 51 58 51 47 0 -4 7 -1 16 6 15
12 16 11 10 -11 -7 -24 -6 -24 8 -6 9 11 16 23 16 28 0 4 5 8 10 8 6 0 10 -2
10 -5z m927 -45 l25 -45 -36 40 c-36 40 -45 60 -25 53 6 -2 22 -24 36 -48z
m2243 36 c0 -3 -4 -8 -10 -11 -5 -3 -10 -1 -10 4 0 6 5 11 10 11 6 0 10 -2 10
-4z m-3120 -15 c0 -5 -7 -14 -15 -21 -16 -14 -18 -10 -9 14 6 17 24 22 24 7z
m811 -37 c27 -64 18 -66 -20 -5 -23 39 -27 51 -16 51 9 0 24 -20 36 -46z
m2349 24 c0 -16 -3 -19 -11 -11 -6 6 -8 16 -5 22 11 17 16 13 16 -11z m-2412
-13 c17 -38 14 -43 -9 -16 l-20 25 6 -30 7 -29 -21 25 c-29 35 -27 40 20 49 3
0 11 -10 17 -24z m692 21 c0 -2 -7 -6 -15 -10 -8 -3 -15 -1 -15 4 0 6 7 10 15
10 8 0 15 -2 15 -4z m1627 -38 c-3 -8 -6 -5 -6 6 -1 11 2 17 5 13 3 -3 4 -12
1 -19z m243 18 c0 -2 -7 -9 -15 -16 -13 -11 -14 -10 -9 4 5 14 24 23 24 12z
m11 -23 c-12 -20 -14 -14 -5 12 4 9 9 14 11 11 3 -2 0 -13 -6 -23z m-2461 -33
c0 -5 -2 -10 -4 -10 -3 0 -8 5 -11 10 -3 6 -1 10 4 10 6 0 11 -4 11 -10z
m1961 -17 c-12 -20 -14 -14 -5 12 4 9 9 14 11 11 3 -2 0 -13 -6 -23z m-2611 7
c0 -5 -5 -10 -11 -10 -5 0 -7 5 -4 10 3 6 8 10 11 10 2 0 4 -4 4 -10z m685 0
c3 -5 1 -10 -4 -10 -6 0 -11 5 -11 10 0 6 2 10 4 10 3 0 8 -4 11 -10z m-537
-12 c19 -19 16 -23 -43 -62 -69 -46 -82 -46 -54 2 43 72 69 88 97 60z m236
-28 c16 -40 22 -120 9 -120 -3 0 -26 21 -50 46 -29 31 -43 55 -43 73 0 35 6
41 41 41 22 0 30 -7 43 -40z m3176 9 c0 -11 -4 -17 -10 -14 -5 3 -10 13 -10
21 0 8 5 14 10 14 6 0 10 -9 10 -21z m39 -6 c0 -25 -1 -25 -8 -8 -5 11 -7 23
-4 28 8 14 13 7 12 -20z m18 -30 c-3 -10 -5 -2 -5 17 0 19 2 27 5 18 2 -10 2
-26 0 -35z m-1160 15 c-3 -8 -6 -5 -6 6 -1 11 2 17 5 13 3 -3 4 -12 1 -19z
m-2536 -59 c-6 -37 -9 -44 -10 -23 -1 37 11 104 16 88 2 -5 -1 -35 -6 -65z
m3826 39 c-3 -8 -6 -5 -6 6 -1 11 2 17 5 13 3 -3 4 -12 1 -19z m-3546 -15 c0
-16 3 -22 6 -15 7 19 19 14 31 -13 16 -34 15 -45 -3 -45 -28 0 -94 -49 -101
-74 -3 -14 -15 -33 -26 -43 -21 -18 -21 -18 -13 17 9 45 7 92 -5 104 -20 20
-9 36 43 66 28 16 55 30 60 30 4 0 7 -12 8 -27z m3129 23 c0 -5 -27 -72 -49
-121 -10 -22 -24 -57 -30 -77 -7 -21 -17 -40 -22 -43 -12 -8 -11 42 2 66 7 15
6 33 -4 69 l-15 49 37 23 c52 33 81 45 81 34z m-3473 -53 c-3 -10 -5 -2 -5 17
0 19 2 27 5 18 2 -10 2 -26 0 -35z m3553 10 c7 -21 16 -42 21 -47 23 -25 8
-36 -46 -36 -30 0 -55 3 -55 7 0 16 35 99 44 105 19 13 24 9 36 -29z m-3569
-80 c7 -8 4 -15 -10 -23 -20 -10 -21 -8 -21 29 0 56 14 87 18 41 2 -19 8 -40
13 -47z m756 35 c-3 -8 -6 -5 -6 6 -1 11 2 17 5 13 3 -3 4 -12 1 -19z m3023
12 c0 -5 -4 -10 -10 -10 -5 0 -10 5 -10 10 0 6 5 10 10 10 6 0 10 -4 10 -10z
m187 -12 c-3 -8 -6 -5 -6 6 -1 11 2 17 5 13 3 -3 4 -12 1 -19z m-732 -48 c-3
-5 -14 -10 -23 -9 -14 0 -13 2 3 9 27 11 27 11 20 0z m298 -7 c-20 -3 -33 -10
-33 -19 0 -8 -7 -14 -15 -14 -17 0 -18 2 -9 24 4 11 18 16 48 14 36 -1 37 -2
9 -5z m474 -15 c-3 -8 -6 -5 -6 6 -1 11 2 17 5 13 3 -3 4 -12 1 -19z m-813
-19 c-31 -12 -40 -9 -20 6 10 8 24 11 29 8 6 -4 2 -10 -9 -14z m301 -19 c3 -5
1 -10 -4 -10 -6 0 -11 -7 -11 -15 0 -8 -7 -15 -15 -15 -12 0 -13 4 -3 25 12
26 23 31 33 15z m-325 -10 c0 -5 -7 -10 -16 -10 -8 0 -12 -4 -9 -10 4 -6 -10
-9 -37 -8 -37 1 -38 2 -10 5 19 3 32 10 32 19 0 8 9 14 20 14 11 0 20 -4 20
-10z m-3162 -27 c-10 -2 -26 -2 -35 0 -10 3 -2 5 17 5 19 0 27 -2 18 -5z m919
-30 c-3 -10 -5 -4 -5 12 0 17 2 24 5 18 2 -7 2 -21 0 -30z m-932 7 c-3 -5 -11
-10 -16 -10 -6 0 -7 5 -4 10 3 6 11 10 16 10 6 0 7 -4 4 -10z m55 -4 c0 -8 -5
-16 -11 -18 -9 -3 -9 -10 0 -26 8 -15 9 -28 2 -40 -9 -14 -11 -12 -11 13 -1
26 -3 27 -10 10 -13 -31 -12 5 1 44 11 32 29 42 29 17z m390 4 c0 -5 -5 -10
-11 -10 -5 0 -7 5 -4 10 3 6 8 10 11 10 2 0 4 -4 4 -10z m2680 -5 c-7 -8 -20
-15 -29 -15 -13 1 -13 3 3 15 26 19 42 19 26 0z m56 -47 c1 -51 0 -56 -6 -28
-4 19 -8 29 -9 21 -1 -10 -4 -11 -15 -2 -16 14 -26 -4 -26 -50 0 -16 -4 -29
-10 -29 -5 0 -7 7 -4 15 4 8 1 15 -5 15 -6 0 -14 -12 -17 -26 -6 -22 -8 -24
-16 -10 -5 10 -5 21 1 28 14 17 105 127 106 128 1 0 1 -28 1 -62z m304 52 c0
-5 -9 -10 -20 -10 -11 0 -20 5 -20 10 0 6 9 10 20 10 11 0 20 -4 20 -10z
m-2973 -36 c-3 -3 -12 -4 -19 -1 -8 3 -5 6 6 6 11 1 17 -2 13 -5z m-60 -10
c-3 -3 -12 -4 -19 -1 -8 3 -5 6 6 6 11 1 17 -2 13 -5z m2643 0 c0 -10 -28 -34
-39 -34 -8 0 -7 7 1 20 12 18 38 28 38 14z m-3140 -14 c0 -5 -10 -10 -22 -10
-19 0 -20 2 -8 10 19 13 30 13 30 0z m3695 -18 c-8 -8 -25 10 -19 20 4 6 9 5
15 -3 4 -7 6 -15 4 -17z m-3659 -30 c1 -26 -1 -41 -3 -34 -3 6 -8 10 -13 7 -9
-6 -6 47 4 63 11 17 11 16 12 -36z m519 38 c3 -5 2 -10 -4 -10 -5 0 -13 5 -16
10 -3 6 -2 10 4 10 5 0 13 -4 16 -10z m-580 -20 c-3 -5 -10 -10 -16 -10 -5 0
-9 5 -9 10 0 6 7 10 16 10 8 0 12 -4 9 -10z m585 -10 c0 -5 -4 -10 -10 -10 -5
0 -10 5 -10 10 0 6 5 10 10 10 6 0 10 -4 10 -10z m2542 -2 c-9 -9 -15 -9 -24
0 -9 9 -7 12 12 12 19 0 21 -3 12 -12z m598 3 c0 -5 -9 -7 -20 -4 -11 3 -20 7
-20 9 0 2 9 4 20 4 11 0 20 -4 20 -9z m-3696 -28 c-9 -39 -24 -52 -24 -22 0
21 16 49 27 49 2 0 0 -12 -3 -27z m503 -18 c2 -14 -1 -25 -6 -25 -5 0 -18 -3
-28 -7 -17 -6 -17 -6 0 14 14 16 15 22 5 26 -8 4 -6 6 5 6 12 1 16 6 11 14 -4
6 -3 8 1 4 5 -4 11 -19 12 -32z m3126 28 c-7 -2 -19 -2 -25 0 -7 3 -2 5 12 5
14 0 19 -2 13 -5z m-3063 -18 c6 -8 9 -19 5 -25 -4 -6 -1 -18 7 -27 11 -14 8
-14 -14 1 -26 17 -30 43 -5 30 7 -3 1 4 -13 15 -19 16 -21 21 -9 21 9 0 22 -7
29 -15z m3120 -5 c-14 -4 -34 -8 -45 -8 -16 0 -15 2 5 8 14 4 34 8 45 8 16 0
15 -2 -5 -8z m-3750 -10 c0 -5 -4 -10 -10 -10 -5 0 -10 5 -10 10 0 6 5 10 10
10 6 0 10 -4 10 -10z m3663 -17 c-7 -2 -19 -2 -25 0 -7 3 -2 5 12 5 14 0 19
-2 13 -5z m117 -9 c0 -2 -7 -4 -15 -4 -8 0 -15 4 -15 10 0 5 7 7 15 4 8 -4 15
-8 15 -10z m-3210 -27 c0 -16 -9 -26 -30 -34 -35 -13 -41 -1 -7 15 14 7 17 11
6 11 -8 1 -24 -6 -35 -14 -23 -17 -38 -19 -28 -4 9 14 66 49 82 49 6 0 12 -10
12 -23z m2567 1 c-3 -8 -6 -5 -6 6 -1 11 2 17 5 13 3 -3 4 -12 1 -19z m600 16
c-3 -3 -12 -4 -19 -1 -8 3 -5 6 6 6 11 1 17 -2 13 -5z m-3112 -25 c0 -8 4 -20
9 -27 7 -11 4 -11 -13 -1 -14 10 -17 15 -8 21 9 6 9 8 0 8 -7 0 -13 5 -13 11
0 16 25 5 25 -12z m3072 15 c-3 -3 -12 -4 -19 -1 -8 3 -5 6 6 6 11 1 17 -2 13
-5z m0 -30 c-3 -3 -12 -4 -19 -1 -8 3 -5 6 6 6 11 1 17 -2 13 -5z m83 -24 c0
-5 -6 -10 -14 -10 -8 0 -21 -3 -30 -6 -9 -3 -16 -1 -16 6 0 6 4 9 9 5 5 -3 12
-1 16 5 8 13 35 13 35 0z m-715 -21 c-4 -5 -13 -9 -20 -9 -8 0 -12 -6 -9 -14
3 -8 0 -17 -7 -22 -9 -5 -10 -2 -6 9 4 10 2 17 -4 17 -6 0 -1 9 12 19 23 19
45 19 34 0z m-3137 -1 c-3 -7 -15 -14 -29 -16 -24 -4 -24 -3 -4 12 24 19 38
20 33 4z m643 -17 c-7 -5 -11 -14 -7 -19 4 -6 -2 -16 -13 -21 -29 -16 -38 -13
-15 4 26 20 0 19 -34 -1 -18 -11 -12 -2 17 25 32 30 47 39 55 31 8 -8 7 -13
-3 -19z m54 -1 c27 -30 12 -34 -15 -5 -13 14 -19 25 -13 25 5 0 18 -9 28 -20z
m3082 14 c-3 -3 -12 -4 -19 -1 -8 3 -5 6 6 6 11 1 17 -2 13 -5z m73 -4 c0 -5
-2 -10 -4 -10 -3 0 -8 5 -11 10 -3 6 -1 10 4 10 6 0 11 -4 11 -10z m-3843 -42
c-3 -7 -5 -2 -5 12 0 14 2 19 5 13 2 -7 2 -19 0 -25z m-27 12 c0 -5 -4 -10
-10 -10 -5 0 -10 5 -10 10 0 6 5 10 10 10 6 0 10 -4 10 -10z m718 -21 c8 -12
9 -18 4 -15 -6 3 -12 0 -15 -6 -4 -10 -7 -11 -18 0 -11 10 -10 12 7 13 10 0
13 3 7 6 -7 2 -13 9 -13 14 0 16 15 10 28 -12z m3153 -8 c-9 -6 -10 -11 -3
-15 17 -11 4 -31 -21 -32 -12 0 -38 -3 -57 -7 -32 -6 -31 -5 8 9 23 9 47 24
52 35 6 10 16 19 23 19 8 0 8 -3 -2 -9z m-3213 -13 c-4 -10 -48 -32 -48 -23 0
2 7 11 16 19 18 19 37 21 32 4z m-1 -34 c-3 -3 -12 -4 -19 -1 -8 3 -5 6 6 6
11 1 17 -2 13 -5z m-2 -54 c-3 -5 -14 -10 -23 -10 -15 0 -15 2 -2 10 20 13 33
13 25 0z m25 -91 c0 -6 -4 -7 -10 -4 -5 3 -10 11 -10 16 0 6 5 7 10 4 6 -3 10
-11 10 -16z m0 -54 c6 -19 9 -41 7 -48 -4 -7 -6 -6 -6 4 -1 9 -8 22 -16 29
-16 14 -21 50 -6 50 5 0 15 -16 21 -35z m-17 -34 c3 -14 1 -18 -9 -14 -8 3
-14 11 -14 19 0 21 17 17 23 -5z m-18 -31 c3 -5 1 -10 -4 -10 -6 0 -11 5 -11
10 0 6 2 10 4 10 3 0 8 -4 11 -10z m2761 -1837 c-79 -3 -87 -5 -70 -18 17 -13
4 -14 -111 -15 -71 0 -229 -2 -350 -5 -220 -5 -220 -5 -125 10 52 7 106 14
120 15 23 1 23 2 5 10 -12 5 114 8 300 7 176 -1 280 -3 231 -4z m-2327 -537
c-8 -6 -534 -214 -559 -221 -14 -3 9 11 51 32 43 21 85 45 95 55 37 32 329
138 383 138 19 0 32 -2 30 -4z m-1259 -208 c-14 -6 -38 -17 -55 -24 -150 -68
-334 -136 -347 -128 -11 7 31 35 77 51 17 6 68 28 115 47 46 20 93 36 105 36
11 0 40 7 65 14 53 17 76 19 40 4z"/>
<path d="M3756 6394 c-15 -20 -26 -38 -23 -40 3 -3 17 11 32 31 36 46 28 55
-9 9z"/>
<path d="M5328 5533 c6 -2 18 -2 25 0 6 3 1 5 -13 5 -14 0 -19 -2 -12 -5z"/>
<path d="M5348 5373 c6 -2 18 -2 25 0 6 3 1 5 -13 5 -14 0 -19 -2 -12 -5z"/>
<path d="M5338 5323 c7 -3 16 -2 19 1 4 3 -2 6 -13 5 -11 0 -14 -3 -6 -6z"/>
<path d="M5431 5126 c10 -9 79 -14 79 -5 0 5 -19 9 -42 9 -23 0 -39 -2 -37 -4z"/>
<path d="M4980 4666 c0 -8 4 -17 9 -20 5 -4 7 3 4 14 -6 23 -13 26 -13 6z"/>
<path d="M5151 4123 c-1 -6 -4 -20 -7 -30 -5 -17 -5 -17 6 0 6 10 9 23 6 30
-3 9 -5 9 -5 0z"/>
<path d="M4931 3954 c0 -11 3 -14 6 -6 3 7 2 16 -1 19 -3 4 -6 -2 -5 -13z"/>
<path d="M4748 6283 c7 -3 16 -2 19 1 4 3 -2 6 -13 5 -11 0 -14 -3 -6 -6z"/>
<path d="M5618 5654 c-64 -50 -74 -65 -28 -37 28 16 100 83 89 83 -2 0 -30
-21 -61 -46z"/>
<path d="M5555 5640 c-3 -5 -2 -10 4 -10 5 0 13 5 16 10 3 6 2 10 -4 10 -5 0
-13 -4 -16 -10z"/>
<path d="M3631 5484 c0 -11 3 -14 6 -6 3 7 2 16 -1 19 -3 4 -6 -2 -5 -13z"/>
<path d="M3552 5450 c0 -19 2 -27 5 -17 2 9 2 25 0 35 -3 9 -5 1 -5 -18z"/>
<path d="M2970 5089 c-7 -11 -13 -51 -15 -87 l-3 -67 15 44 c8 24 12 57 9 73
-3 18 -2 27 4 23 6 -3 10 3 10 14 0 27 -6 27 -20 0z"/>
<path d="M3032 5046 c-14 -68 -14 -90 -2 -61 7 17 9 16 10 -10 2 -31 2 -30 35
95 6 23 6 24 -6 5 -13 -19 -13 -19 -19 5 -5 20 -8 13 -18 -34z m15 -28 c-3 -7
-5 -2 -5 12 0 14 2 19 5 13 2 -7 2 -19 0 -25z"/>
<path d="M3183 5045 c-12 -30 -18 -55 -14 -55 9 0 45 99 39 106 -3 2 -14 -20
-25 -51z"/>
<path d="M6086 4753 c-6 -14 -5 -15 5 -6 7 7 10 15 7 18 -3 3 -9 -2 -12 -12z"/>
<path d="M1641 4444 c0 -11 3 -14 6 -6 3 7 2 16 -1 19 -3 4 -6 -2 -5 -13z"/>
<path d="M5498 4233 c6 -2 18 -2 25 0 6 3 1 5 -13 5 -14 0 -19 -2 -12 -5z"/>
<path d="M5483 4183 c9 -2 23 -2 30 0 6 3 -1 5 -18 5 -16 0 -22 -2 -12 -5z"/>
<path d="M2016 4103 c-6 -14 -5 -15 5 -6 7 7 10 15 7 18 -3 3 -9 -2 -12 -12z"/>
</g>
</svg>
